<svg xmlns="http://www.w3.org/2000/svg" width="920" height="406" viewBox="0 0 920 406" role="img" aria-labelledby="title desc">
<title id="title">Technology coverage</title><desc id="desc">Horizontal bar chart for Technology coverage</desc>
<rect width="100%" height="100%" rx="14" fill="#0d1117"/>
<text x="28" y="38" fill="#f0f6fc" font-family="system-ui,sans-serif" font-size="22" font-weight="700">Technology coverage</text>
<text x="234" y="97" text-anchor="end" fill="#c9d1d9" font-family="system-ui,sans-serif" font-size="14">GitHub Actions</text><rect x="250" y="83" width="590" height="20" rx="5" fill="#21262d"/><rect x="250" y="83" width="590" height="20" rx="5" fill="#58a6ff"/><text x="854" y="98" fill="#f0f6fc" font-family="ui-monospace,monospace" font-size="14">3</text>
<text x="234" y="139" text-anchor="end" fill="#c9d1d9" font-family="system-ui,sans-serif" font-size="14">GitHub API</text><rect x="250" y="125" width="590" height="20" rx="5" fill="#21262d"/><rect x="250" y="125" width="393" height="20" rx="5" fill="#58a6ff"/><text x="854" y="140" fill="#f0f6fc" font-family="ui-monospace,monospace" font-size="14">2</text>
<text x="234" y="181" text-anchor="end" fill="#c9d1d9" font-family="system-ui,sans-serif" font-size="14">GitHub Events API</text><rect x="250" y="167" width="590" height="20" rx="5" fill="#21262d"/><rect x="250" y="167" width="197" height="20" rx="5" fill="#58a6ff"/><text x="854" y="182" fill="#f0f6fc" font-family="ui-monospace,monospace" font-size="14">1</text>
<text x="234" y="223" text-anchor="end" fill="#c9d1d9" font-family="system-ui,sans-serif" font-size="14">GitHub Search API</text><rect x="250" y="209" width="590" height="20" rx="5" fill="#21262d"/><rect x="250" y="209" width="197" height="20" rx="5" fill="#58a6ff"/><text x="854" y="224" fill="#f0f6fc" font-family="ui-monospace,monospace" font-size="14">1</text>
<text x="234" y="265" text-anchor="end" fill="#c9d1d9" font-family="system-ui,sans-serif" font-size="14">GitHub</text><rect x="250" y="251" width="590" height="20" rx="5" fill="#21262d"/><rect x="250" y="251" width="197" height="20" rx="5" fill="#58a6ff"/><text x="854" y="266" fill="#f0f6fc" font-family="ui-monospace,monospace" font-size="14">1</text>
<text x="234" y="307" text-anchor="end" fill="#c9d1d9" font-family="system-ui,sans-serif" font-size="14">GitHub Issues</text><rect x="250" y="293" width="590" height="20" rx="5" fill="#21262d"/><rect x="250" y="293" width="197" height="20" rx="5" fill="#58a6ff"/><text x="854" y="308" fill="#f0f6fc" font-family="ui-monospace,monospace" font-size="14">1</text>
<text x="234" y="349" text-anchor="end" fill="#c9d1d9" font-family="system-ui,sans-serif" font-size="14">GitHub Pull Requests</text><rect x="250" y="335" width="590" height="20" rx="5" fill="#21262d"/><rect x="250" y="335" width="197" height="20" rx="5" fill="#58a6ff"/><text x="854" y="350" fill="#f0f6fc" font-family="ui-monospace,monospace" font-size="14">1</text>
</svg>
